<svg xmlns="http://www.w3.org/2000/svg"  viewBox="0 0 30 30" width="30px" height="30px"><path fill="#ffb5d2" d="M15,28.5C7.6,28.5,1.5,22.4,1.5,15S7.6,1.5,15,1.5S28.5,7.6,28.5,15S22.4,28.5,15,28.5z"/><path fill="#ea4c89" d="M15,2c7.2,0,13,5.8,13,13s-5.8,13-13,13S2,22.2,2,15S7.8,2,15,2 M15,1C7.3,1,1,7.3,1,15 s6.3,14,14,14s14-6.3,14-14S22.7,1,15,1L15,1z"/><path fill="#ea4c89" d="M20.7,27.5c0-0.2-2.3-15.5-11.4-25L10,1.8c9.3,9.7,11.6,25.4,11.7,25.5L20.7,27.5z"/><path fill="#ea4c89" d="M4.1 14c-1.6 0-2.7-.1-2.9-.1l.1-1c.2 0 17.6 1.4 23.2-7.9l.9.5C20.7 13.1 9.4 14 4.1 14zM6.5 25.6l-.9-.4c.1-.2 6.7-15 23.5-9.3l-.3.9C12.8 11.5 6.5 25.5 6.5 25.6z"/></svg>